<svg xmlns="http://www.w3.org/2000/svg" viewBox="0 0 360 360"><defs><style>.cls-1{isolation:isolate;}.cls-2{fill:#db955c;}.cls-3{fill:#fff;}.cls-4,.cls-5{fill:#353535;}.cls-5{mix-blend-mode:screen;}</style></defs><g class="cls-1"><g id="rendu"><g id="yeux"><g id="LS_Meuf" data-name="LS  Meuf"><g id="_2_-_copie_13" data-name="2 - copie 13"><rect class="cls-2" x="138.75" y="117.04" width="29.93" height="62.79" rx="11.39"/><path class="cls-3" d="M141.82,152.21H164.4a4.27,4.27,0,0,1,4.27,4.27v12.12A11.39,11.39,0,0,1,157.28,180h-7.14a11.39,11.39,0,0,1-11.39-11.39V155.28a3.07,3.07,0,0,1,3.07-3.07Z"/><path class="cls-4" d="M149.64,152.21h8.42a2.27,2.27,0,0,1,2.27,2.27V165a6.61,6.61,0,0,1-6.61,6.61h0a6.61,6.61,0,0,1-6.61-6.61V154.75A2.53,2.53,0,0,1,149.64,152.21Z"/><path class="cls-5" d="M153.84,152.21H158a.39.39,0,0,1,.39.39v.19a2.24,2.24,0,0,1-2.24,2.24h-.3a2.44,2.44,0,0,1-2.44-2.44v0a.39.39,0,0,1,.39-.39Z"/><rect class="cls-5" x="152.38" y="156.22" width="4.37" height="4.37" rx="1.53"/><rect class="cls-2" x="191.32" y="116.95" width="29.93" height="62.79" rx="11.39"/><path class="cls-3" d="M194.4,152.12H217a4.27,4.27,0,0,1,4.27,4.27v12.12a11.39,11.39,0,0,1-11.39,11.39h-7.14a11.39,11.39,0,0,1-11.39-11.39V155.2a3.07,3.07,0,0,1,3.07-3.07Z"/><path class="cls-4" d="M202.21,152.12h8.42a2.27,2.27,0,0,1,2.27,2.27v10.48a6.61,6.61,0,0,1-6.61,6.61h0a6.61,6.61,0,0,1-6.61-6.61V154.66a2.53,2.53,0,0,1,2.53-2.53Z"/><path class="cls-5" d="M206.41,152.12h4.2a.39.39,0,0,1,.39.39v.19a2.24,2.24,0,0,1-2.24,2.24h-.3a2.44,2.44,0,0,1-2.44-2.44v0A.39.39,0,0,1,206.41,152.12Z"/><rect class="cls-5" x="204.95" y="156.13" width="4.37" height="4.37" rx="1.53"/><path d="M217,152.12H197.89c-4-.08-4.69.6-6.56,2.84,0,0-.12-1.75,2.16-3.05,1.13-.63,4.62-.81,7.42-.81a33.07,33.07,0,0,0,13.45-3l-2.81,2.74c3.86,0,9.47-3.46,9.47-3.46l-1.66,2.73a28.77,28.77,0,0,0,3.34-.65c1.49-.44,4.94-1.68,4.94-1.68s-6,9.27-6.49,7.76C220,151.87,217,152.12,217,152.12Z"/><path d="M143.15,152.22h19.07c4-.09,5.26.63,6.44,3.87a4.48,4.48,0,0,0-2-4.08c-1.12-.64-4.62-.81-7.42-.81a33.13,33.13,0,0,1-13.45-3l2.81,2.73c-3.85,0-9.47-3.46-9.47-3.46l1.66,2.74a29.18,29.18,0,0,1-3.34-.65c-1.48-.45-4.93-1.68-4.93-1.68s6,9.26,6.48,7.76C140.1,152,143.15,152.22,143.15,152.22Z"/></g></g></g></g></g></svg>