<svg xmlns="http://www.w3.org/2000/svg" viewBox="0 0 360 360"><defs><style>.cls-1{isolation:isolate;}.cls-2{fill:#e29983;}.cls-3{fill:#fff;}.cls-4,.cls-5{fill:#353535;}.cls-5{mix-blend-mode:screen;}</style></defs><g class="cls-1"><g id="rendu"><g id="yeux"><g id="B_meuf" data-name="B meuf"><g id="_4_-_copie_5" data-name="4 - copie 5"><rect class="cls-2" x="138.75" y="117.04" width="29.93" height="62.79" rx="11.39"/><rect class="cls-2" x="191.32" y="117.04" width="29.93" height="62.7" rx="11.39"/><rect class="cls-3" x="138.75" y="140.15" width="29.93" height="39.67" rx="11.39"/><path d="M217,160.1H197.89c-3.48,0-6.29-1.48-6.29-3.31a7.2,7.2,0,0,0,3.54,2.1,46.8,46.8,0,0,0,5.77.19A33,33,0,0,0,214.36,156l-2.81,2.74c3.86,0,9.47-3.46,9.47-3.46L219.36,158a26.66,26.66,0,0,0,3.34-.65c1.49-.44,4.94-1.68,4.94-1.68s-4.19,3.27-5.66,3.85A22.3,22.3,0,0,1,217,160.1Z"/><rect class="cls-4" x="147.11" y="145" width="13.21" height="26.56" rx="6.61"/><rect class="cls-5" x="153.71" y="147.79" width="4.99" height="7.25" rx="2.04"/><rect class="cls-5" x="152.38" y="156.22" width="4.37" height="4.37" rx="1.53"/><path d="M168.68,150.11s-1.77-9.81-14.25-9.81a38.86,38.86,0,0,0-6.11.57c-1.34.45-5.49,1-9.11,8.22-.39.77-5.1.63-5.1.63s1.9-.77,3.1-1.29a4.47,4.47,0,0,0,2-1.52c.22-.29-2.58.16-3.52.21a36.66,36.66,0,0,0,3.61-1.65s2.34-2.17-1.12-2l5.46-2.26c3.43-1.44,4.14-1.76,10.57-1.8C163.57,139.35,167.7,144.06,168.68,150.11Z"/></g></g></g></g></g></svg>