<svg xmlns="http://www.w3.org/2000/svg" viewBox="0 0 360 360"><defs><style>.cls-1{isolation:isolate;}.cls-2{fill:#fff;}.cls-3,.cls-4{fill:#353535;}.cls-4{mix-blend-mode:screen;}</style></defs><g class="cls-1"><g id="rendu"><g id="yeux"><g id="LS_Meuf" data-name="LS  Meuf"><g id="_1_-_copie_17" data-name="1 - copie 17"><rect class="cls-2" x="191.32" y="117.04" width="29.93" height="62.49" rx="11.39"/><rect class="cls-3" x="199.68" y="145" width="13.21" height="26.56" rx="6.61"/><rect class="cls-4" x="205.67" y="147.79" width="4.99" height="7.25" rx="2.04"/><rect class="cls-4" x="204.34" y="156.22" width="4.37" height="4.37" rx="1.53"/><rect class="cls-2" x="138.75" y="117.04" width="29.93" height="62.49" rx="11.39"/><rect class="cls-3" x="147.11" y="145" width="13.21" height="26.56" rx="6.61"/><rect class="cls-4" x="153.1" y="147.79" width="4.99" height="7.25" rx="2.04"/><rect class="cls-4" x="151.76" y="156.22" width="4.37" height="4.37" rx="1.53"/><path d="M168.68,127.08s-1.77-9.81-14.25-9.81a38.86,38.86,0,0,0-6.11.57c-1.34.45-5.49,1-9.11,8.22-.39.78-5.1.63-5.1.63s1.9-.77,3.1-1.29a4.49,4.49,0,0,0,2-1.51c.22-.3-2.58.16-3.52.2a34.09,34.09,0,0,0,3.61-1.65s2.34-2.17-1.12-2c0,0,2.45-1,5.46-2.26,3.43-1.44,4.14-1.76,10.57-1.79C163.57,116.32,167.7,121,168.68,127.08Z"/><path d="M191.32,127.08s1.77-9.81,14.25-9.81a38.86,38.86,0,0,1,6.11.57c1.34.45,5.49,1,9.11,8.22.39.78,5.1.63,5.1.63s-1.9-.77-3.1-1.29a4.49,4.49,0,0,1-2-1.51c-.22-.3,2.58.16,3.52.2a34.09,34.09,0,0,1-3.61-1.65s-2.34-2.17,1.12-2c0,0-2.45-1-5.46-2.26-3.43-1.44-4.14-1.76-10.57-1.79C196.43,116.32,192.3,121,191.32,127.08Z"/></g></g></g></g></g></svg>