<svg id="vetement_-_copie_5" data-name="vetement - copie 5" xmlns="http://www.w3.org/2000/svg" viewBox="0 0 360 360"><defs><style>.cls-1{fill:#418a9e;}.cls-2{fill:#54a7c4;}.cls-3{fill:#c2c1c1;}.cls-4{fill:#fff;}.cls-5{fill:#347684;}</style></defs><g id="_1_-_copie_10" data-name="1 - copie 10"><path class="cls-1" d="M303.75,303.75H56.25c0-37.85,41.23-68.52,82.5-68.52h82.5c41.23,0,82.5,30.67,82.5,68.52Z"/><path class="cls-2" d="M304,303.75H56.45c0-30,41.23-54.28,82.5-54.28h82.5c41.23,0,82.5,24.3,82.5,54.28Z"/><rect class="cls-3" x="139.46" y="236.37" width="80.44" height="67.38"/><path class="cls-4" d="M140,303.75V254a4.54,4.54,0,0,1,4.54-4.54h2.8a4.33,4.33,0,0,1,3.85,2.34l2.62,5,52.57-.34,2.86-5.17a3.58,3.58,0,0,1,3.13-1.85H217a3.39,3.39,0,0,1,3.39,3.39v50.89Z"/><path class="cls-1" d="M221.38,303.72V262.5l.22-1.73a5.59,5.59,0,0,1,7.36-4.61l11.47,3.92a.88.88,0,0,0,1.42-1c-2.87-7.32-12.82-37.86-20.6-37.86h-82.5c-7.78,0-17.6,30.56-20.47,37.88a.89.89,0,0,0,1.42,1l10.81-3.86a6.43,6.43,0,0,1,8.24,3.94h0v43.56h2.59V242.19s0-5.62,11.87-5.62H216s2.94.26,2.94,6.52v60.66Z"/><path class="cls-5" d="M221.38,303.75V252.49a2.05,2.05,0,0,1,3.09-1.77l16,9.36a.88.88,0,0,0,1.42-1c-2.87-7.32-12.82-37.86-20.6-37.86h-82.5c-7.78,0-17.6,30.56-20.47,37.88a.89.89,0,0,0,1.42,1l16-9.38a2.06,2.06,0,0,1,3.09,1.77v51.25h2.59V242.19s0-5.62,11.87-5.62H216s2.94.26,2.94,6.52v60.66Z"/><path class="cls-5" d="M97.49,274.47h0a1.11,1.11,0,0,1,1.11,1.11v28.16a0,0,0,0,1,0,0H96.39a0,0,0,0,1,0,0V275.57A1.1,1.1,0,0,1,97.49,274.47Z"/><path class="cls-5" d="M262.49,274.47h0a1.11,1.11,0,0,1,1.11,1.11v28.16a0,0,0,0,1,0,0h-2.21a0,0,0,0,1,0,0V275.57A1.1,1.1,0,0,1,262.49,274.47Z"/></g></svg>