<svg id="vetement" xmlns="http://www.w3.org/2000/svg" viewBox="0 0 360 360"><defs><style>.cls-1{fill:#78a037;}.cls-2{fill:#88be3d;}.cls-3{fill:#c2c1c1;}.cls-4{fill:#fff;}.cls-5{fill:#51702a;}.cls-6{fill:#5d8530;}</style></defs><g id="vetement_-_copie_7" data-name="vetement - copie 7"><g id="_1_-_copie_14" data-name="1 - copie 14"><path class="cls-1" d="M303.75,303.75H56.25c0-37.85,41.23-68.52,82.5-68.52h82.5c41.23,0,82.5,30.67,82.5,68.52Z"/><path class="cls-2" d="M304.15,304.34H56.65c0-30,41.23-54.27,82.5-54.27h82.5c41.23,0,82.5,24.3,82.5,54.27Z"/><polygon class="cls-3" points="162.41 303.75 139.46 236.37 225.28 236.37 197 303.72 162.41 303.75"/><path class="cls-4" d="M162.41,304.34h34l17.6-42c0-2.51-1.35-4.11-3.11-4.34-4.54-.59-8.54,2.43-8.54,2.43l-44.91-.07s-3.88-2.95-8.43-2.36c-1.76.23-3.1,1.83-3.1,4.34l16.47,42"/><path class="cls-5" d="M197,304.34l24.82-24.68c16.77-18.29,19-33.22,5.93-51.87-2.42-3.46-4.56-5.91-6.5-5.91h-82.5c-2,0-4.2,2.36-6.49,5.92-10.56,16.43-7.93,38.08,5.8,52l24.31,24.57H165L141.3,242.82s0-5.62,11.87-5.62H216s2.93.26,2.93,6.51-24.36,60.64-24.36,60.64Z"/><path class="cls-6" d="M97.49,274.47h0a1.11,1.11,0,0,1,1.11,1.11v28.16a0,0,0,0,1,0,0H96.39a0,0,0,0,1,0,0V275.57A1.1,1.1,0,0,1,97.49,274.47Z"/><path class="cls-6" d="M262.49,274.47h0a1.11,1.11,0,0,1,1.11,1.11v28.16a0,0,0,0,1,0,0h-2.21a0,0,0,0,1,0,0V275.57A1.1,1.1,0,0,1,262.49,274.47Z"/><path class="cls-1" d="M129.33,267s4.15,17.77,30.44,37.31h2.56s-22.87-22.65-27.07-27.72A41.81,41.81,0,0,1,129.33,267Z"/><path class="cls-1" d="M230.89,267.77S226,285,199.53,304.34l-2.55,0s19.42-19.41,24.1-24.05C228.26,273.14,230.89,267.77,230.89,267.77Z"/></g></g></svg>