<svg id="vetement" xmlns="http://www.w3.org/2000/svg" viewBox="0 0 360 360"><defs><style>.cls-1{fill:#9c2323;}.cls-2{fill:#ad2b29;}.cls-3{fill:#7f1d1d;}.cls-4{fill:#6b1819;}</style></defs><g id="vetement_-_copie_5" data-name="vetement - copie 5"><g id="_1_-_copie_12" data-name="1 - copie 12"><path class="cls-1" d="M303.75,303.75H56.25c0-37.85,41.23-68.52,82.5-68.52h82.5c41.23,0,82.5,30.67,82.5,68.52Z"/><path class="cls-2" d="M304,303.75H56.45c0-30,41.23-54.28,82.5-54.28h82.5c41.23,0,82.5,24.3,82.5,54.28Z"/><path class="cls-1" d="M97.49,274.47h0a1.11,1.11,0,0,1,1.11,1.11v28.16a0,0,0,0,1,0,0H96.39a0,0,0,0,1,0,0V275.57A1.1,1.1,0,0,1,97.49,274.47Z"/><path class="cls-1" d="M262.49,274.47h0a1.11,1.11,0,0,1,1.11,1.11v28.16a0,0,0,0,1,0,0h-2.21a0,0,0,0,1,0,0V275.57A1.1,1.1,0,0,1,262.49,274.47Z"/><rect id="coup" class="cls-3" x="142.36" y="219.47" width="74.94" height="49.4" rx="17.92"/><path class="cls-4" d="M142.36,249.47s32.43-15.44,74.94,0V224.91l-74.94,12.28Z"/></g></g></svg>