<svg id="vetement" xmlns="http://www.w3.org/2000/svg" viewBox="0 0 360 360"><defs><style>.cls-1{fill:#418a9e;}.cls-2{fill:#54a7c4;}.cls-3{fill:#347684;}.cls-4{fill:#21575f;}</style></defs><g id="vetement_-_copie_5" data-name="vetement - copie 5"><g id="_1_-_copie_11" data-name="1 - copie 11"><path class="cls-1" d="M303.75,303.75H56.25c0-37.85,41.23-68.52,82.5-68.52h82.5c41.23,0,82.5,30.67,82.5,68.52Z"/><path class="cls-2" d="M304,303.75H56.45c0-30,41.23-54.28,82.5-54.28h82.5c41.23,0,82.5,24.3,82.5,54.28Z"/><path class="cls-3" d="M150.46,268.7H152a1.11,1.11,0,0,1,1.11,1.11v1.57a1.11,1.11,0,0,1-1.11,1.11h-1.58a1.11,1.11,0,0,1-1.11-1.11V269.8a1.1,1.1,0,0,1,1.1-1.1Z"/><path class="cls-3" d="M209,268.64h1.58a1.11,1.11,0,0,1,1.11,1.11v1.57a1.11,1.11,0,0,1-1.11,1.11H209a1.11,1.11,0,0,1-1.11-1.11v-1.59A1.1,1.1,0,0,1,209,268.64Z"/><path class="cls-3" d="M97.49,274.47h0a1.11,1.11,0,0,1,1.11,1.11v28.16a0,0,0,0,1,0,0H96.39a0,0,0,0,1,0,0V275.57A1.1,1.1,0,0,1,97.49,274.47Z"/><path class="cls-4" d="M151.25,269.49h0a1.11,1.11,0,0,1,1.11,1.11v27.06a1.11,1.11,0,0,1-1.11,1.11h0a1.11,1.11,0,0,1-1.11-1.11V270.59a1.1,1.1,0,0,1,1.1-1.1Z"/><path class="cls-4" d="M209.8,269.49h0a1.11,1.11,0,0,1,1.11,1.11v27.06a1.11,1.11,0,0,1-1.11,1.11h0a1.11,1.11,0,0,1-1.11-1.11V270.59a1.1,1.1,0,0,1,1.1-1.1Z"/><path class="cls-3" d="M262.49,274.47h0a1.11,1.11,0,0,1,1.11,1.11v28.16a0,0,0,0,1,0,0h-2.21a0,0,0,0,1,0,0V275.57A1.1,1.1,0,0,1,262.49,274.47Z"/><rect class="cls-2" x="97.55" y="180" width="164.93" height="82.5" rx="32.43"/><rect class="cls-3" x="113.15" y="183.04" width="133.67" height="79.46" rx="32.43"/></g></g></svg>