<svg id="vetement" xmlns="http://www.w3.org/2000/svg" viewBox="0 0 360 360"><defs><style>.cls-1{fill:#fff;stroke:#a03433;stroke-linecap:round;stroke-linejoin:round;stroke-width:0.5px;}.cls-2{fill:#a03433;}.cls-3{fill:#7f1d1d;}.cls-4{fill:#6b2627;opacity:0.5;}</style></defs><g id="vetement_-_copie_5" data-name="vetement - copie 5"><g id="_1_-_copie_13" data-name="1 - copie 13"><path class="cls-1" d="M303.75,303.75H56.25c0-37.85,41.23-68.52,82.5-68.52h82.5c41.23,0,82.5,30.67,82.5,68.52Z"/><path class="cls-2" d="M302.9,302.87H57.37a35.33,35.33,0,0,1,.76-8.51,47,47,0,0,1,2.41-8.51h239a74.17,74.17,0,0,1,2.17,8A75.59,75.59,0,0,1,302.9,302.87Z"/><path class="cls-2" d="M167.72,279.52H63.3a85.38,85.38,0,0,1,4.94-8.31,76.68,76.68,0,0,1,7.91-9.11l91.74.16h24.39L284,262.1a76,76,0,0,1,7.9,9.11,84.24,84.24,0,0,1,4.95,8.31H167.72Z"/><path class="cls-2" d="M171.09,255.48H83.38s5.29-4.8,16.54-10.35a81.57,81.57,0,0,1,21-7l50.58.14"/><path class="cls-2" d="M188.6,255.48h87.7s-5.29-4.8-16.54-10.35a81.57,81.57,0,0,0-21-7l-50.57.14"/><path class="cls-3" d="M97.49,274.47h0a1.11,1.11,0,0,1,1.11,1.11v28.16a0,0,0,0,1,0,0H96.39a0,0,0,0,1,0,0V275.57A1.1,1.1,0,0,1,97.49,274.47Z"/><path class="cls-3" d="M262.49,274.47h0a1.11,1.11,0,0,1,1.11,1.11v28.16a0,0,0,0,1,0,0h-2.21a0,0,0,0,1,0,0V275.57A1.1,1.1,0,0,1,262.49,274.47Z"/><path class="cls-4" d="M56.45,303.75s18.17-54.28,75.7-54.28h89.3s71.5,2.22,82.5,54.28c0,0,1-38.15-43.36-59.35-25.64-12.26-41.83-9.17-80.39-9.17-29.22,0-55.27-3.54-80.23,8.9C53.09,267.48,56.45,303.75,56.45,303.75Z"/><rect id="coup" class="cls-3" x="142.7" y="195.03" width="74.04" height="75.18" rx="17.92"/></g></g></svg>