<svg xmlns="http://www.w3.org/2000/svg" viewBox="0 0 360 360"><defs><style>.cls-1{isolation:isolate;}.cls-2{fill:#684625;}.cls-3{fill:#70421c;}.cls-4,.cls-5{fill:#875c29;}.cls-5{opacity:0.5;mix-blend-mode:screen;}</style></defs><g class="cls-1"><g id="rendu"><g id="cheveux"><g id="_1" data-name="1"><g id="_1_chatin" data-name="1 chatin"><rect class="cls-2" x="118.1" y="74.93" width="4.24" height="64.23" rx="1.64"/><rect class="cls-2" x="237.62" y="74.93" width="4.24" height="64.23" rx="1.64"/><polygon class="cls-2" points="128.36 97.5 150.83 97.5 149.3 84.19 126.7 85.85 128.36 97.5"/><path class="cls-2" d="M122.34,117s0-19.54,19.38-19.54l-23.63-8.4Z"/><path class="cls-2" d="M237.6,117s0-19.54-19.38-19.54l23.63-8.4Z"/><path class="cls-3" d="M152.91,56.25H262.48a0,0,0,0,1,0,0v7.7a41.25,41.25,0,0,1-41.25,41.25H152.91a12,12,0,0,1-12-12V68.25A12,12,0,0,1,152.91,56.25Z"/><path class="cls-4" d="M152.91,56.25h96.53a0,0,0,0,1,0,0v7.7A41.25,41.25,0,0,1,208.2,105.2H152.91a12,12,0,0,1-12-12V68.25A12,12,0,0,1,152.91,56.25Z"/><rect class="cls-3" x="108.74" y="65.33" width="32.17" height="32.17" rx="8.58"/><rect class="cls-4" x="108.74" y="65.33" width="28.12" height="32.17" rx="8.58"/><rect class="cls-5" x="112.76" y="67.43" width="20.09" height="9.02" rx="4.51"/><path class="cls-5" d="M152.66,60.37h92.08a0,0,0,0,1,0,0v7.39A6.72,6.72,0,0,1,238,74.48H152.66a7.06,7.06,0,0,1-7.06-7.06v0A7.06,7.06,0,0,1,152.66,60.37Z"/></g></g></g></g></g></svg>