<svg id="rendu" xmlns="http://www.w3.org/2000/svg" viewBox="0 0 360 360"><defs><style>.cls-1,.cls-2,.cls-3,.cls-4{fill:#282828;}.cls-2{opacity:0.7;}.cls-3{opacity:0.5;}.cls-4{opacity:0.89;}.cls-5{fill:#474747;}</style></defs><g id="cheveux"><g id="_3" data-name="3"><path class="cls-1" d="M120.88,103.07h0a1.46,1.46,0,0,1,1.46,1.46v16.64a1.46,1.46,0,0,1-1.46,1.46h-1.31a1.46,1.46,0,0,1-1.46-1.46V105.84A2.77,2.77,0,0,1,120.88,103.07Z"/><path class="cls-1" d="M239.08,103.07h1.31a1.46,1.46,0,0,1,1.46,1.46v16.64a1.46,1.46,0,0,1-1.46,1.46h0a2.77,2.77,0,0,1-2.77-2.77V104.53a1.46,1.46,0,0,1,1.46-1.46Z" transform="translate(479.47 225.71) rotate(180)"/><rect class="cls-2" x="237.62" y="129.6" width="4.24" height="0.87" rx="0.44" transform="translate(479.47 260.07) rotate(-180)"/><rect class="cls-3" x="237.62" y="132.18" width="4.24" height="0.87" rx="0.44" transform="translate(479.47 265.24) rotate(180)"/><rect class="cls-4" x="237.62" y="124.43" width="4.24" height="0.87" rx="0.44" transform="translate(479.47 249.72) rotate(-180)"/><rect class="cls-1" x="237.62" y="123.07" width="4.24" height="0.87" rx="0.44" transform="translate(479.47 247.02) rotate(-180)"/><rect class="cls-4" x="237.62" y="125.89" width="4.24" height="0.87" rx="0.44" transform="translate(479.47 252.66) rotate(180)"/><rect class="cls-2" x="237.62" y="127.62" width="4.24" height="0.87" rx="0.44" transform="translate(479.47 256.11) rotate(-180)"/><rect class="cls-2" x="118.1" y="129.6" width="4.24" height="0.87" rx="0.44" transform="translate(240.45 260.07) rotate(-180)"/><rect class="cls-3" x="118.1" y="132.18" width="4.24" height="0.87" rx="0.44" transform="translate(240.45 265.24) rotate(180)"/><rect class="cls-3" x="118.1" y="135.31" width="4.24" height="0.87" rx="0.44" transform="translate(240.45 271.49) rotate(180)"/><rect class="cls-3" x="237.62" y="135.31" width="4.24" height="0.87" rx="0.44" transform="translate(479.47 271.49) rotate(180)"/><rect class="cls-4" x="118.1" y="124.43" width="4.24" height="0.87" rx="0.44" transform="translate(240.45 249.72) rotate(-180)"/><rect class="cls-1" x="118.1" y="123.07" width="4.24" height="0.87" rx="0.44" transform="translate(240.45 247.02) rotate(-180)"/><rect class="cls-4" x="118.1" y="125.89" width="4.24" height="0.87" rx="0.44" transform="translate(240.45 252.66) rotate(180)"/><rect class="cls-2" x="118.1" y="127.62" width="4.24" height="0.87" rx="0.44" transform="translate(240.45 256.11) rotate(-180)"/><path class="cls-1" d="M122.34,117s0-19.54,19.38-19.54l-8.47-3A9.62,9.62,0,0,0,120.51,105Z"/><path class="cls-1" d="M237.6,117s0-19.54-19.38-19.54L226,94.73c7.16-2.55,16.16-2.77,15,4.74Z"/><path class="cls-1" d="M113.15,92.83l4.95,28.35,7.41-23.68H237.62l4.23,23.68,5-28.86s0-29.21-66.81-29.21S113.15,92.83,113.15,92.83Z"/><circle class="cls-1" cx="179.73" cy="68.62" r="12.67"/><circle class="cls-1" cx="237.62" cy="82.66" r="12.67"/><circle class="cls-1" cx="231.1" cy="72.07" r="5.43"/><circle class="cls-1" cx="200.87" cy="66.64" r="5.43"/><circle class="cls-1" cx="245.16" cy="90.68" r="5.43"/><circle class="cls-1" cx="210.28" cy="66.64" r="6.11"/><circle class="cls-1" cx="221" cy="69.99" r="7.77"/><circle class="cls-1" cx="192.65" cy="66.64" r="7.77"/><circle class="cls-1" cx="121.84" cy="82.67" r="12.67"/><circle class="cls-1" cx="128.35" cy="72.07" r="5.43"/><circle class="cls-1" cx="158.58" cy="66.65" r="5.43"/><circle class="cls-5" cx="208.67" cy="73.99" r="4.5"/><circle class="cls-1" cx="114.29" cy="90.69" r="5.43"/><circle class="cls-1" cx="116.92" cy="95.34" r="5.43"/><circle class="cls-1" cx="243.04" cy="96.11" r="5.43"/><circle class="cls-1" cx="149.18" cy="66.65" r="6.11"/><circle class="cls-1" cx="138.45" cy="70" r="7.77"/><circle class="cls-1" cx="166.8" cy="66.65" r="7.77"/><circle class="cls-1" cx="179.58" cy="90.08" r="12.67"/><circle class="cls-1" cx="200.72" cy="92.05" r="5.43"/><circle class="cls-1" cx="210.13" cy="92.05" r="6.11"/><circle class="cls-1" cx="192.5" cy="92.05" r="7.77"/><circle class="cls-1" cx="158.43" cy="92.05" r="5.43"/><circle class="cls-1" cx="149.03" cy="92.05" r="6.11"/><circle class="cls-1" cx="166.65" cy="92.05" r="7.77"/><path class="cls-5" d="M230,88.31c4.48,14.51,11.17,8.26,9.39,4-1.69-4,3.77-8,1.46-11.68a9.54,9.54,0,0,0-15-1.72c-3.67,3.78-12.72,3.27,4.16,9.39"/><circle class="cls-5" cx="238.57" cy="89.57" r="3.62"/><circle class="cls-5" cx="224.17" cy="79.42" r="5.84"/><path class="cls-5" d="M224.68,86.26a34.33,34.33,0,0,1,4.78,2.6,21.24,21.24,0,0,1,2.43,4.27l-.46-8.23Z"/></g></g></svg>