<svg xmlns="http://www.w3.org/2000/svg" viewBox="0 0 360 360"><defs><style>.cls-1{isolation:isolate;}.cls-2{fill:#59111a;}.cls-3{fill:#821721;}.cls-4,.cls-5{fill:#b7292a;}.cls-5{opacity:0.5;mix-blend-mode:screen;}</style></defs><g class="cls-1"><g id="rendu"><g id="cheveux"><g id="Calque_210" data-name="Calque 210"><g id="_6" data-name="6"><path class="cls-2" d="M125.73,247.06s4.77-7.7,19.25-7.7a36.59,36.59,0,0,1-19.25-13.65L121,236.37Z"/><path class="cls-3" d="M97.5,105.43h28.24a0,0,0,0,1,0,0V275.51A28.24,28.24,0,0,1,97.5,303.75h0a0,0,0,0,1,0,0V105.43a0,0,0,0,1,0,0Z"/><path class="cls-3" d="M91.4,281.81h0L101.34,234l22,4.5L121.86,256A28.24,28.24,0,0,1,91.4,281.81Z"/><path class="cls-3" d="M125.74,138.42s1.47-30.87,28-33.8l-31.26-20-5.62,37Z"/><path class="cls-4" d="M180,84.66s-82,63-82,79.15l-.44,38.3a62.78,62.78,0,0,1-8.93-29c-.71-12.38,8.58-70.43,9.75-76.2S103.14,79,122.5,67.55c15.7-9.31,33.43-11.21,33.43-11.21s7.9,0,10.5.29c3.36.39,13.25,2.74,13.25,2.74"/><path class="cls-2" d="M233.73,247.06s-4.77-7.55-19.26-7.55c0,0,10.94-2.36,19.24-13.53l4.74,10.39Z"/><path class="cls-3" d="M233.71,105.43h0A28.24,28.24,0,0,1,262,133.66V303.75a0,0,0,0,1,0,0H233.71a0,0,0,0,1,0,0V105.43A0,0,0,0,1,233.71,105.43Z" transform="translate(495.67 409.18) rotate(-180)"/><path class="cls-3" d="M268.05,281.81h0L258.11,234l-22,4.5L237.6,256A28.22,28.22,0,0,0,268.05,281.81Z"/><path class="cls-3" d="M233.71,138.42s-1.47-30.87-28-33.8l31.26-20,5.62,37Z"/><path class="cls-4" d="M179.47,84.66s82,63,82,79.15l.43,38.3s8.09-7.26,9.09-24.53c.72-12.39-8.74-74.9-9.91-80.67S256.31,79,237,67.55c-15.7-9.31-33.43-11.21-33.43-11.21s-7.89,0-10.5.29c-3.36.39-13.25,2.74-13.25,2.74"/><rect class="cls-5" x="120.38" y="97.89" width="51.22" height="5.87" rx="2.94" transform="translate(-30.98 113.45) rotate(-38.71)"/><rect class="cls-5" x="99.07" y="102.49" width="43.86" height="5.87" rx="2.94" transform="translate(-39.35 98.83) rotate(-38.71)"/><rect class="cls-5" x="188.47" y="97.89" width="51.22" height="5.87" rx="2.94" transform="translate(318.07 313.38) rotate(-141.29)"/><rect class="cls-5" x="217.13" y="102.49" width="43.86" height="5.87" rx="2.94" transform="translate(359.68 337.2) rotate(-141.29)"/></g></g></g></g></g></svg>