<svg xmlns="http://www.w3.org/2000/svg" viewBox="0 0 360 360"><defs><style>.cls-1{isolation:isolate;}.cls-2{fill:#70421c;}.cls-3{fill:#bababa;}.cls-4,.cls-5{fill:#875c29;}.cls-5{opacity:0.3;mix-blend-mode:screen;}</style></defs><g class="cls-1"><g id="rendu"><g id="cheveux"><g id="Calque_205" data-name="Calque 205"><g id="_5_chatin" data-name="5 chatin"><path class="cls-2" d="M174.12,56.25h9.1A21.74,21.74,0,0,1,205,78v0a12,12,0,0,1-12,12H164.38a12,12,0,0,1-12-12v0a21.74,21.74,0,0,1,21.74-21.74Z"/><path class="cls-3" d="M175.43,64.93h9.1a21.74,21.74,0,0,1,21.74,21.74v0a12,12,0,0,1-12,12H165.69a12,12,0,0,1-12-12v0A21.74,21.74,0,0,1,175.43,64.93Z"/><path class="cls-4" d="M99.5,136.74h22.38a0,0,0,0,1,0,0v18.92A22.38,22.38,0,0,1,99.5,178h0a0,0,0,0,1,0,0v-41.3A0,0,0,0,1,99.5,136.74Z" transform="translate(32.09 -18.24) rotate(11.01)"/><path class="cls-4" d="M105.24,195.06h0l3.46-17.76a14,14,0,0,0,2.79,1.19,15.75,15.75,0,0,0,4.15.41l-2,10.51A7.16,7.16,0,0,1,105.24,195.06Z"/><path class="cls-4" d="M110.81,193.27h0l.13-14.39,7.16,0v7.3A7.19,7.19,0,0,1,110.81,193.27Z"/><path class="cls-4" d="M118.1,180.66l-3.23,0L114.73,195h0a7.21,7.21,0,0,0,3.37-.79Z"/><path class="cls-4" d="M254.71,195.06h0l-3.46-17.76a14,14,0,0,1-2.79,1.19,15.75,15.75,0,0,1-4.15.41l2,10.51A7.16,7.16,0,0,0,254.71,195.06Z"/><path class="cls-4" d="M249.15,193.27h0L249,178.88l-7.17,0v7.3A7.2,7.2,0,0,0,249.15,193.27Z"/><path class="cls-4" d="M241.85,180.66l3.24,0,.14,14.39h0a7.28,7.28,0,0,1-3.38-.79Z"/><path class="cls-4" d="M193.76,90.95h0a22.38,22.38,0,0,1,22.38,22.38v18.92a0,0,0,0,1,0,0H193.76a0,0,0,0,1,0,0V90.95A0,0,0,0,1,193.76,90.95Z" transform="translate(433.69 157.86) rotate(162.86)"/><path class="cls-4" d="M117.67,98.11H140a0,0,0,0,1,0,0V148.5a22.38,22.38,0,0,1-22.38,22.38h0a0,0,0,0,1,0,0V98.11A0,0,0,0,1,117.67,98.11Z" transform="translate(28.05 -22.13) rotate(11.01)"/><path class="cls-4" d="M239.57,136.74h0a22.38,22.38,0,0,1,22.38,22.38V178a0,0,0,0,1,0,0H239.57a0,0,0,0,1,0,0v-41.3A0,0,0,0,1,239.57,136.74Z" transform="translate(526.95 264) rotate(168.99)"/><path class="cls-2" d="M234.44,120.15h0a78.89,78.89,0,0,0-108.88,0l0,0L103.65,135C99.63,88.08,129,70,158.2,68.25l9.82,0,12,6.25,12.76-6.25,9.06,0c14.87-2,62.52,11.58,56,68.49Z"/><path class="cls-4" d="M220.35,98.66h0A22.38,22.38,0,0,1,242.73,121v50.38a0,0,0,0,1,0,0H220.35a0,0,0,0,1,0,0V98.66A0,0,0,0,1,220.35,98.66Z" transform="translate(484.61 223.38) rotate(168.99)"/><path class="cls-4" d="M140.93,131s10-26.32,22.88-26.32S180,97.94,180,94.11s.09-18.77,0-19.66-1-4.86-11.32-6.2S121.55,90.91,121.55,103,131,132.56,131,132.56Z"/><path class="cls-4" d="M220.81,128.61s-11.73-23.91-24.62-23.91S180,97.94,180,94.11s-.09-18.77,0-19.66,1-4.86,11.31-6.2S238.44,90.91,238.44,103,229,132.56,229,132.56Z"/><path class="cls-4" d="M103.65,135s8.07-30.79,31.11-49.48c20.91-17,33.9-17.25,33.9-17.25L183.72,78l14.56-3.57,17.62,4.21S240.66,92.57,257.8,135l-13.08,9.17L212.89,91.3l-46.78,1-33,5.93-16.75,52.54Z"/><path class="cls-5" d="M200.48,106.21h0A15.84,15.84,0,0,1,216.32,122v0a5.94,5.94,0,0,1-5.94,5.94h-3.94a6,6,0,0,1-6-6V106.21A0,0,0,0,1,200.48,106.21Z" transform="translate(442.05 167.59) rotate(162.86)"/><path class="cls-4" d="M145.56,90.86h22.38a0,0,0,0,1,0,0v18.92a22.38,22.38,0,0,1-22.38,22.38h0a0,0,0,0,1,0,0V90.86A0,0,0,0,1,145.56,90.86Z" transform="translate(39.81 -41.23) rotate(17.14)"/><path class="cls-5" d="M225.63,106.32h0a13.73,13.73,0,0,1,13.73,13.73v38.54a6.25,6.25,0,0,1-6.25,6.25h0a7.49,7.49,0,0,1-7.49-7.49v-51a0,0,0,0,1,0,0Z" transform="translate(486.61 224.26) rotate(168.99)"/><path class="cls-5" d="M246.87,128.32h0a10.21,10.21,0,0,1,10.21,10.21v29.85a4.64,4.64,0,0,1-4.64,4.64h0a5.57,5.57,0,0,1-5.57-5.57V128.32A0,0,0,0,1,246.87,128.32Z" transform="translate(528.08 250.44) rotate(168.99)"/><path class="cls-5" d="M130.54,106.32h0a6.25,6.25,0,0,1,6.25,6.25V151.1a13.73,13.73,0,0,1-13.73,13.73h0a0,0,0,0,1,0,0v-51a7.49,7.49,0,0,1,7.49-7.49Z" transform="translate(28.28 -22.31) rotate(11.01)"/><path class="cls-5" d="M110.91,128.32h0a4.64,4.64,0,0,1,4.64,4.64V162.8A10.21,10.21,0,0,1,105.34,173h0a0,0,0,0,1,0,0V133.88a5.57,5.57,0,0,1,5.57-5.57Z" transform="matrix(0.98, 0.19, -0.19, 0.98, 30.8, -18.32)"/><path class="cls-5" d="M152.49,106.21h3.94a5.94,5.94,0,0,1,5.94,5.94v0A15.84,15.84,0,0,1,146.54,128h0a0,0,0,0,1,0,0V112.16A6,6,0,0,1,152.49,106.21Z" transform="matrix(0.96, 0.29, -0.29, 0.96, 41.36, -40.31)"/></g></g></g></g></g></svg>