<svg id="rendu" xmlns="http://www.w3.org/2000/svg" viewBox="0 0 360 360"><defs><style>.cls-1{fill:#b7292a;}.cls-2{fill:#a01c24;}.cls-3{fill:#df6065;}</style></defs><g id="cheveux"><g id="Calque_196" data-name="Calque 196"><g id="_4.2_rouge" data-name="4.2 rouge"><path class="cls-1" d="M120.88,103.07h0a1.46,1.46,0,0,1,1.46,1.46V136.2a1.46,1.46,0,0,1-1.46,1.46h-1.31a1.46,1.46,0,0,1-1.46-1.46V105.84a2.77,2.77,0,0,1,2.77-2.77Z"/><path class="cls-1" d="M239.08,103.07h1.31a1.46,1.46,0,0,1,1.46,1.46v31.69a1.46,1.46,0,0,1-1.46,1.46h0a2.77,2.77,0,0,1-2.77-2.77V104.53a1.46,1.46,0,0,1,1.46-1.46Z" transform="translate(479.47 240.75) rotate(180)"/><path class="cls-1" d="M122.34,117s0-19.54,19.38-19.54l-8.47-3A9.62,9.62,0,0,0,120.51,105Z"/><path class="cls-1" d="M237.6,117s0-19.54-19.38-19.54L226,94.73c7.16-2.55,16.16-2.77,15,4.74Z"/><path class="cls-1" d="M118.21,137.66h2l-.75-26.1,6-14.06h46.85a7.31,7.31,0,0,0,6-3.1L180,92.05l2.32,2.8a7.29,7.29,0,0,0,5.63,2.65h49.69l2.9,40.16,1.61,0S262.46,68.07,181,68.07C97.46,68.07,118.21,137.66,118.21,137.66Z"/><g id="Calque_61_-_copie_5" data-name="Calque 61 - copie 5"><circle class="cls-1" cx="118.85" cy="133.03" r="3.49"/><circle class="cls-1" cx="117.39" cy="126.63" r="4.95"/><circle class="cls-1" cx="117.39" cy="120.5" r="4.95"/><circle class="cls-1" cx="116.59" cy="113.47" r="4.95"/><circle class="cls-1" cx="116.37" cy="105.48" r="4.95"/><path class="cls-2" d="M116.13,178.91c.66,0,.54,1.23.54,1.93a3.76,3.76,0,1,1-6.34-2.73S111.93,178.91,116.13,178.91Z"/><circle class="cls-2" cx="108.31" cy="183.61" r="3.76"/><circle class="cls-2" cx="99.38" cy="195.07" r="3.76"/><circle class="cls-2" cx="101.63" cy="190.19" r="3.76"/><circle class="cls-2" cx="105.38" cy="186.43" r="3.76"/><circle class="cls-2" cx="97.87" cy="200.18" r="3.76"/><circle class="cls-2" cx="97.87" cy="205.22" r="3.76"/><circle class="cls-2" cx="97.87" cy="210.65" r="3.76"/><circle class="cls-2" cx="99.38" cy="216.05" r="3.76"/><circle class="cls-2" cx="102.26" cy="220.86" r="3.76"/><circle class="cls-2" cx="106.02" cy="224.91" r="3.76"/><circle class="cls-2" cx="111.56" cy="227.94" r="3.76"/><circle class="cls-2" cx="116.38" cy="229.75" r="3.76"/><circle class="cls-2" cx="122.57" cy="229.75" r="3.76"/><path class="cls-2" d="M124.93,230.38a2.09,2.09,0,0,0,1.52,1.89c2.06.87,3.55-1.62,2.8-2.48-1.45-1.66-1.7-1.1-2.63-1.1A1.69,1.69,0,0,0,124.93,230.38Z"/><circle class="cls-1" cx="116.59" cy="98.87" r="4.95"/><circle class="cls-1" cx="118.94" cy="92.05" r="4.95"/><circle class="cls-1" cx="123.89" cy="85.91" r="4.95"/><circle class="cls-1" cx="128" cy="80.13" r="4.95"/><circle class="cls-1" cx="133.78" cy="76.89" r="4.95"/><circle class="cls-1" cx="142.92" cy="70.99" r="4.95"/><circle class="cls-1" cx="137.97" cy="74.51" r="4.95"/><circle class="cls-1" cx="155.14" cy="67" r="4.95"/><circle class="cls-1" cx="148.48" cy="68.66" r="4.95"/><circle class="cls-1" cx="160.97" cy="66.15" r="4.95"/><circle class="cls-1" cx="172.81" cy="70.31" r="7.19"/><circle class="cls-1" cx="187.19" cy="70.31" r="7.19"/><circle class="cls-1" cx="167.68" cy="67" r="4.95"/><circle class="cls-1" cx="241.68" cy="132.34" r="3.87"/><circle class="cls-1" cx="242.61" cy="126.67" r="4.95"/><circle class="cls-1" cx="242.61" cy="120.54" r="4.95"/><circle class="cls-1" cx="243.41" cy="113.51" r="4.95"/><circle class="cls-1" cx="243.63" cy="105.52" r="4.95"/><circle class="cls-1" cx="243.41" cy="98.91" r="4.95"/><circle class="cls-1" cx="241.06" cy="92.09" r="4.95"/><circle class="cls-1" cx="236.11" cy="85.96" r="4.95"/><circle class="cls-1" cx="232" cy="80.18" r="4.95"/><circle class="cls-1" cx="226.22" cy="76.93" r="4.95"/><circle class="cls-1" cx="217.08" cy="71.04" r="4.95"/><circle class="cls-1" cx="222.03" cy="74.55" r="4.95"/><circle class="cls-1" cx="204.86" cy="67.04" r="4.95"/><circle class="cls-1" cx="211.52" cy="68.71" r="4.95"/><circle class="cls-1" cx="199.03" cy="66.19" r="4.95"/><circle class="cls-1" cx="192.32" cy="67.04" r="4.95"/><circle class="cls-3" cx="193.86" cy="76.07" r="4.95"/><circle class="cls-3" cx="221.68" cy="85.39" r="3.63"/><circle class="cls-3" cx="199.37" cy="72.6" r="4.95"/><circle class="cls-3" cx="202.43" cy="77.01" r="4.95"/><circle class="cls-3" cx="210.38" cy="77.29" r="4.95"/><circle class="cls-1" cx="150.15" cy="108.52" r="3.04"/><circle class="cls-1" cx="133.78" cy="96.17" r="3.04"/><circle class="cls-1" cx="164.01" cy="95.73" r="3.04"/><circle class="cls-1" cx="153.71" cy="109.63" r="2.6"/><circle class="cls-1" cx="153.19" cy="112.85" r="1.77"/><circle class="cls-1" cx="167.68" cy="96.17" r="1.77"/><circle class="cls-1" cx="150.99" cy="115.17" r="1.77"/><circle class="cls-1" cx="149.81" cy="117.95" r="1.39"/><circle class="cls-1" cx="158.43" cy="92.05" r="5.43"/><circle class="cls-1" cx="149.03" cy="96.11" r="6.11"/><circle class="cls-1" cx="140.12" cy="93.13" r="6.11"/><circle class="cls-1" cx="157.87" cy="93.13" r="6.11"/><circle class="cls-1" cx="147.11" cy="103.93" r="3.89"/><path class="cls-2" d="M122.7,231.28c-7.51,1.47-22.25-3.42-26.31-19.74-4.5-18.08,5.87-27.93,19.34-32.63h2.37v25.27a39.58,39.58,0,0,0,2.6,12.48c1.85,5,8.29,12.9,8.29,12.9S129.42,230,122.7,231.28Z"/><path class="cls-2" d="M243.84,178.91c-.65,0-.53,1.23-.53,1.93a3.76,3.76,0,1,0,6.34-2.73S248.05,178.91,243.84,178.91Z"/><circle class="cls-2" cx="251.66" cy="183.61" r="3.76"/><circle class="cls-2" cx="260.59" cy="195.07" r="3.76"/><circle class="cls-2" cx="258.35" cy="190.19" r="3.76"/><circle class="cls-2" cx="254.59" cy="186.43" r="3.76"/><circle class="cls-2" cx="262.11" cy="200.18" r="3.76"/><circle class="cls-2" cx="262.11" cy="205.22" r="3.76"/><circle class="cls-2" cx="262.11" cy="210.65" r="3.76"/><circle class="cls-2" cx="260.59" cy="216.05" r="3.76"/><circle class="cls-2" cx="257.72" cy="220.86" r="3.76"/><circle class="cls-2" cx="253.96" cy="224.91" r="3.76"/><circle class="cls-2" cx="248.42" cy="227.94" r="3.76"/><circle class="cls-2" cx="243.6" cy="229.75" r="3.76"/><circle class="cls-2" cx="237.41" cy="229.75" r="3.76"/><path class="cls-2" d="M235.05,230.38a2.09,2.09,0,0,1-1.52,1.89c-2.06.87-3.56-1.62-2.8-2.48,1.45-1.66,1.7-1.1,2.63-1.1A1.69,1.69,0,0,1,235.05,230.38Z"/><path class="cls-2" d="M237.28,231.28c7.51,1.47,22.24-3.42,26.3-19.74,4.5-18.08-5.86-27.93-19.34-32.63h-2.37v25.27a39.72,39.72,0,0,1-2.59,12.48c-1.85,5-8.29,12.9-8.29,12.9S230.56,230,237.28,231.28Z"/><path class="cls-3" d="M193.64,81s4.21-1.88,7.67.82l3.62-.55a2.56,2.56,0,0,1,3.22.43c1.7,1.52,2-5.47,2-5.47l-1.75-2.14.1-.81s-1.71,1.52-4.21-.85-8.23-1.26-8.23-1.26L193,77.8Z"/></g></g></g></g></svg>