<svg xmlns="http://www.w3.org/2000/svg" viewBox="0 0 360 360"><defs><style>.cls-1{isolation:isolate;}.cls-2,.cls-3,.cls-4,.cls-5,.cls-6{fill:#d8a830;}.cls-3{opacity:0.7;}.cls-4,.cls-6{opacity:0.5;}.cls-5{opacity:0.89;}.cls-6{mix-blend-mode:screen;}</style></defs><g class="cls-1"><g id="rendu"><g id="cheveux"><g id="Calque_178" data-name="Calque 178"><g id="_2_Blond" data-name="2 Blond"><path class="cls-2" d="M120.88,103.07h0a1.46,1.46,0,0,1,1.46,1.46v16.64a1.46,1.46,0,0,1-1.46,1.46h-1.31a1.46,1.46,0,0,1-1.46-1.46V105.84A2.77,2.77,0,0,1,120.88,103.07Z"/><path class="cls-2" d="M239.08,103.07h1.31a1.46,1.46,0,0,1,1.46,1.46v16.64a1.46,1.46,0,0,1-1.46,1.46h0a2.77,2.77,0,0,1-2.77-2.77V104.53a1.46,1.46,0,0,1,1.46-1.46Z" transform="translate(479.47 225.71) rotate(180)"/><rect class="cls-3" x="237.62" y="129.6" width="4.24" height="0.87" rx="0.44" transform="translate(479.47 260.07) rotate(-180)"/><rect class="cls-4" x="237.62" y="132.18" width="4.24" height="0.87" rx="0.44" transform="translate(479.47 265.24) rotate(180)"/><rect class="cls-5" x="237.62" y="124.43" width="4.24" height="0.87" rx="0.44" transform="translate(479.47 249.72) rotate(-180)"/><rect class="cls-2" x="237.62" y="123.07" width="4.24" height="0.87" rx="0.44" transform="translate(479.47 247.02) rotate(-180)"/><rect class="cls-5" x="237.62" y="125.89" width="4.24" height="0.87" rx="0.44" transform="translate(479.47 252.66) rotate(180)"/><rect class="cls-3" x="237.62" y="127.62" width="4.24" height="0.87" rx="0.44" transform="translate(479.47 256.11) rotate(-180)"/><rect class="cls-3" x="118.1" y="129.6" width="4.24" height="0.87" rx="0.44" transform="translate(240.45 260.07) rotate(-180)"/><rect class="cls-4" x="118.1" y="132.18" width="4.24" height="0.87" rx="0.44" transform="translate(240.45 265.24) rotate(180)"/><rect class="cls-4" x="118.1" y="135.31" width="4.24" height="0.87" rx="0.44" transform="translate(240.45 271.49) rotate(180)"/><rect class="cls-4" x="237.62" y="135.31" width="4.24" height="0.87" rx="0.44" transform="translate(479.47 271.49) rotate(180)"/><rect class="cls-5" x="118.1" y="124.43" width="4.24" height="0.87" rx="0.44" transform="translate(240.45 249.72) rotate(-180)"/><rect class="cls-2" x="118.1" y="123.07" width="4.24" height="0.87" rx="0.44" transform="translate(240.45 247.02) rotate(-180)"/><rect class="cls-5" x="118.1" y="125.89" width="4.24" height="0.87" rx="0.44" transform="translate(240.45 252.66) rotate(180)"/><rect class="cls-3" x="118.1" y="127.62" width="4.24" height="0.87" rx="0.44" transform="translate(240.45 256.11) rotate(-180)"/><path class="cls-2" d="M122.34,117s0-19.54,19.38-19.54l-8.47-3A9.62,9.62,0,0,0,120.51,105Z"/><path class="cls-2" d="M237.6,117s0-19.54-19.38-19.54L226,94.73a10,10,0,0,1,13.3,11Z"/><path class="cls-2" d="M118.1,104.71S118.1,67,160.32,67h42.42c39.11,0,39.11,37.75,39.11,37.75l-13.33-9.52-10.3,2.31H131.06l-8.72,7.21Z"/><rect class="cls-6" x="176.96" y="79.48" width="29.67" height="10.04" rx="5.02"/><rect class="cls-6" x="197.63" y="72.09" width="16.56" height="5.12" rx="2.56"/></g></g></g></g></g></svg>