<svg id="rendu" xmlns="http://www.w3.org/2000/svg" viewBox="0 0 360 360"><defs><style>.cls-1{fill:#5a190b;}.cls-2{fill:#c2c1c1;}.cls-3{fill:#fff;}.cls-4{fill:#cf3d34;}.cls-5{fill:#e94736;}</style></defs><g id="bouche"><g id="bouche_2" data-name="bouche 2"><g id="_1_-_copie_21" data-name="1 - copie 21"><path class="cls-1" d="M144.12,199.85h71.76a4.63,4.63,0,0,1,4.46,5.79c-2.31,9.07-10.6,25.62-40.34,25.62s-38-16.55-40.34-25.62A4.62,4.62,0,0,1,144.12,199.85Z"/><path class="cls-2" d="M157.85,199.85h44.29A1.86,1.86,0,0,1,204,201.7V204a4.25,4.25,0,0,1-4.25,4.25H160.25A4.25,4.25,0,0,1,156,204V201.7a1.86,1.86,0,0,1,1.86-1.86Z"/><path class="cls-3" d="M158.48,201.07h43a2,2,0,0,1,2,2v.77a4.42,4.42,0,0,1-4.42,4.42H160.87a4.42,4.42,0,0,1-4.42-4.42v-.77a2,2,0,0,1,2-2Z"/><path class="cls-4" d="M160.61,228.22s5.94-4.62,19.39-4.62c13.68,0,19.39,4.62,19.39,4.62s-7.2,3-19.39,3C167.62,231.26,160.61,228.22,160.61,228.22Z"/><path class="cls-5" d="M166.65,230s-.1-3.46,13.35-3.46c13.68,0,13.75,3.36,13.75,3.36A59.92,59.92,0,0,1,180,231.26,61.32,61.32,0,0,1,166.65,230Z"/></g></g></g></svg>