<svg id="rendu" xmlns="http://www.w3.org/2000/svg" viewBox="0 0 360 360"><defs><style>.cls-1{fill:#fff;}.cls-2{fill:#c2c1c1;}</style></defs><g id="bouche"><g id="bouche_3" data-name="bouche 3"><path class="cls-1" d="M170.06,205.43h31.22a10.06,10.06,0,0,1,10.06,10.06v0a9.43,9.43,0,0,1-9.43,9.43H160.32a0,0,0,0,1,0,0v-9.74A9.74,9.74,0,0,1,170.06,205.43Z" transform="translate(371.66 430.34) rotate(-180)"/><path class="cls-2" d="M187.69,214.32h23.38a.28.28,0,0,1,.28.28v1a.47.47,0,0,1-.47.47H187.69a.85.85,0,0,1-.85-.85v0A.85.85,0,0,1,187.69,214.32Z"/></g></g></svg>