<svg xmlns="http://www.w3.org/2000/svg" viewBox="0 0 360 360"><defs><style>.cls-1{isolation:isolate;}.cls-2{fill:#ceeaf6;opacity:0.49;}.cls-3,.cls-5{fill:#d3d3d3;}.cls-4{fill:#fff;opacity:0.17;}.cls-4,.cls-5{mix-blend-mode:screen;}.cls-5{opacity:0.57;}</style></defs><g class="cls-1"><g id="rendu"><g id="lunettes"><g id="ronde"><g id="caré_-_copie" data-name="caré - copie"><circle class="cls-2" cx="151.39" cy="159.54" r="23.13"/><path class="cls-3" d="M126.87,156.22l-9-19.28a1.43,1.43,0,0,0-1.39-1.07h-.68a1.43,1.43,0,0,0-1.37,1.83l12.16,24.59Z"/><path class="cls-3" d="M233.49,156.22l9-19.28a1.42,1.42,0,0,1,1.38-1.07h.69a1.43,1.43,0,0,1,1.37,1.83l-12.16,24.59Z"/><path class="cls-3" d="M174.19,163.17l-.39,0a29.38,29.38,0,0,1,12.35,0h0V159h0a32.38,32.38,0,0,0-12.37-.16l.48-.09Z"/><rect class="cls-4" x="138.48" y="164.71" width="2.55" height="16.6" rx="1.28" transform="translate(-77.35 124.74) rotate(-38.53)"/><rect class="cls-4" x="142.26" y="153.56" width="2.55" height="26.97" rx="1.28" transform="translate(-72.81 125.79) rotate(-38.53)"/><path class="cls-3" d="M151.39,134a25.51,25.51,0,1,0,25.5,25.51A25.51,25.51,0,0,0,151.39,134Zm.06,47.94a22.37,22.37,0,1,1,22.38-22.37A22.38,22.38,0,0,1,151.45,182Z"/><path class="cls-5" d="M126.87,164c3.06,10.75,9.18,17.45,18.94,19.34a1.53,1.53,0,0,0,1.08-.32c.39-.35-.25-.7-.25-.7-11.82-2.74-16.36-10.23-18.7-19.15,0,0-.21-.56-.8-.19C126.72,163.23,126.87,164,126.87,164Z"/><path class="cls-5" d="M170,143.71a21.92,21.92,0,0,0-15.72-8.13,1.52,1.52,0,0,0-1,.43c-.35.4.33.67.33.67,7.27.87,12.1,3.74,15.51,7.78,0,0,.61.54,1.06.3S170,143.71,170,143.71Z"/><circle class="cls-2" cx="208.49" cy="159.54" r="23.13"/><rect class="cls-4" x="195.58" y="164.71" width="2.55" height="16.6" rx="1.28" transform="translate(-64.91 160.31) rotate(-38.53)"/><rect class="cls-4" x="199.35" y="153.56" width="2.55" height="26.97" rx="1.28" transform="translate(-60.38 161.36) rotate(-38.53)"/><path class="cls-3" d="M208.49,134A25.51,25.51,0,1,0,234,159.54,25.5,25.5,0,0,0,208.49,134Zm.06,47.94a22.37,22.37,0,1,1,22.37-22.37A22.38,22.38,0,0,1,208.55,182Z"/><path class="cls-5" d="M184,164c3.07,10.75,9.19,17.45,18.95,19.34A1.53,1.53,0,0,0,204,183c.38-.35-.25-.7-.25-.7-11.82-2.74-16.36-10.23-18.71-19.15,0,0-.2-.56-.79-.19C183.82,163.23,184,164,184,164Z"/><path class="cls-5" d="M227.06,143.71a21.94,21.94,0,0,0-15.72-8.13,1.55,1.55,0,0,0-1.05.43c-.34.4.34.67.34.67,7.27.87,12.1,3.74,15.51,7.78,0,0,.61.54,1.05.3S227.06,143.71,227.06,143.71Z"/></g></g></g></g></g></svg>