<svg xmlns="http://www.w3.org/2000/svg" viewBox="0 0 360 360"><defs><style>.cls-1{isolation:isolate;}.cls-2,.cls-5{fill:#d3d3d3;}.cls-3{fill:#ceeaf6;opacity:0.49;}.cls-4{fill:#fff;opacity:0.17;}.cls-4,.cls-5{mix-blend-mode:screen;}.cls-5{opacity:0.57;}</style></defs><g class="cls-1"><g id="rendu"><g id="lunettes"><g id="caré"><path class="cls-2" d="M163.55,135.87H138.11a12,12,0,0,0-12,12v25.44a12,12,0,0,0,12,12h25.44a12,12,0,0,0,12-12V147.87A12,12,0,0,0,163.55,135.87Zm8.33,34.66a12,12,0,0,1-12,12h-19a12,12,0,0,1-12-12v-19a12,12,0,0,1,12-12h19a12,12,0,0,1,12,12Z"/><rect class="cls-3" x="128.89" y="139.55" width="42.99" height="42.99" rx="12"/><path class="cls-2" d="M222.41,135.87H197a12,12,0,0,0-12,12v25.44a12,12,0,0,0,12,12h25.44a12,12,0,0,0,12-12V147.87A12,12,0,0,0,222.41,135.87Zm8.33,34.66a12,12,0,0,1-12,12h-19a12,12,0,0,1-12-12v-19a12,12,0,0,1,12-12h19a12,12,0,0,1,12,12Z"/><rect class="cls-3" x="187.75" y="139.55" width="42.99" height="42.99" rx="12"/><path class="cls-2" d="M126.87,156.22l-9-19.28a1.43,1.43,0,0,0-1.39-1.07h-.68a1.43,1.43,0,0,0-1.37,1.83l12.16,24.59Z"/><path class="cls-2" d="M233.49,156.22l9-19.28a1.42,1.42,0,0,1,1.38-1.07h.69a1.43,1.43,0,0,1,1.37,1.83l-12.16,24.59Z"/><path class="cls-2" d="M173.64,163.17l.16,0a29.38,29.38,0,0,1,12.35,0h0V159h0a32.38,32.38,0,0,0-12.37-.16l-.89.16Z"/><rect class="cls-4" x="195.7" y="164.71" width="2.55" height="16.6" rx="1.28" transform="translate(-64.89 160.39) rotate(-38.53)"/><rect class="cls-4" x="199.47" y="153.56" width="2.55" height="26.97" rx="1.28" transform="translate(-60.35 161.44) rotate(-38.53)"/><rect class="cls-4" x="136.94" y="164.71" width="2.55" height="16.6" rx="1.28" transform="translate(-77.68 123.78) rotate(-38.53)"/><rect class="cls-4" x="140.71" y="153.56" width="2.55" height="26.97" rx="1.28" transform="translate(-73.15 124.83) rotate(-38.53)"/><path class="cls-5" d="M227.13,139.11c-3.62-2-4.66-1.52-4.66-1.52-.9,0-.86.67-.86.67s.11.53,1,.81A12.93,12.93,0,0,1,232,150.23v23.66a.81.81,0,0,0,1.62,0v-25.1A14.23,14.23,0,0,0,227.13,139.11Z"/><path class="cls-5" d="M133.23,139.11c3.62-2,4.66-1.52,4.66-1.52.89,0,.86.67.86.67s-.12.53-1.05.81a12.91,12.91,0,0,0-9.32,11.16v23.66a.82.82,0,0,1-1.63,0v-25.1A14.24,14.24,0,0,1,133.23,139.11Z"/><path class="cls-5" d="M161.81,183.26a12.29,12.29,0,0,0,10.76-9.15c.2-.68,1.07-.56,1.07-.56s.64.22.47.73-2.05,10-12.05,10c-.63,0-.89-.71-.89-.71A1,1,0,0,1,161.81,183.26Z"/><path class="cls-5" d="M198.48,183.26a12.3,12.3,0,0,1-10.77-9.15c-.19-.68-1.06-.56-1.06-.56s-.64.22-.47.73,2,10,12,10c.64,0,.89-.71.89-.71A1,1,0,0,0,198.48,183.26Z"/></g></g></g></g></svg>